<svg xmlns="http://www.w3.org/2000/svg" viewBox="0 0 180 152"><defs><style>.cls-1,.cls-2{fill:none;}.cls-2{stroke:#fff;stroke-miterlimit:10;stroke-width:2.27px;}</style></defs><title>1</title><g id="Layer_2" data-name="Layer 2"><rect class="cls-1" width="180" height="152"/><path class="cls-2" d="M90,22.85C75.26,22.85,55.91,34,55.91,56.19c0,18.52,9.17,24.22,13.41,29.36a21.32,21.32,0,0,1,5.15,13.38"/><path class="cls-2" d="M90,22.85c14.74,0,34.09,11.11,34.09,33.34,0,18.52-9.17,24.22-13.41,29.36a21.32,21.32,0,0,0-5.15,13.38"/><path class="cls-2" d="M90,22.85C75.26,22.85,55.91,34,55.91,56.19c0,18.52,9.17,24.22,13.41,29.36a21.32,21.32,0,0,1,5.15,13.38"/><path class="cls-2" d="M90,22.85c14.74,0,34.09,11.11,34.09,33.34,0,18.52-9.17,24.22-13.41,29.36a21.32,21.32,0,0,0-5.15,13.38"/><path class="cls-2" d="M90,120.71c13.79,0,15.53-4.78,15.53-4.78v-1.46s-2.56-1.47-1.09-3.06,1.09-4.54,1.09-4.54-1.88-.45-.52-2.61.52-5.33.52-5.33S103.79,103.7,90,103.7s-15.53-4.77-15.53-4.77-.84,3.18.52,5.33-.52,2.61-.52,2.61-.38,2.95,1.09,4.54-1.09,3.06-1.09,3.06v1.46S76.21,120.71,90,120.71Z"/><path class="cls-2" d="M74.47,106.87s18.11,6.07,31.14-4.14"/><path class="cls-2" d="M74.47,114.47s22.55,6.17,31.31-6.58"/><path class="cls-2" d="M77.43,118.51c-.05,2.14,1.64,5.77,12.7,5.77"/><path class="cls-2" d="M102.83,118.51c0,2.14-1.64,5.77-12.7,5.77"/><path class="cls-2" d="M95.27,124s0,5.2-5.14,5.2S85,124,85,124"/></g></svg>