<svg width="14" height="14" viewBox="0 0 14 14" fill="none" xmlns="http://www.w3.org/2000/svg">
<g clip-path="url(#clip0_1545_13393)">
<path d="M7 13.5C10.5899 13.5 13.5 10.5899 13.5 7C13.5 3.41015 10.5899 0.5 7 0.5C3.41015 0.5 0.5 3.41015 0.5 7C0.5 10.5899 3.41015 13.5 7 13.5Z" stroke="white" stroke-linecap="round" stroke-linejoin="round"/>
<path d="M1 9.50007H2.75C3.21413 9.50007 3.65925 9.31569 3.98744 8.98751C4.31563 8.65932 4.5 8.2142 4.5 7.75007V6.25007C4.5 5.78594 4.68437 5.34082 5.01256 5.01263C5.34075 4.68444 5.78587 4.50007 6.25 4.50007C6.71413 4.50007 7.15925 4.31569 7.48744 3.98751C7.81563 3.65932 8 3.2142 8 2.75007V0.570068" stroke="white" stroke-linecap="round" stroke-linejoin="round"/>
<path d="M13.5 6.9C12.9993 6.64021 12.4441 6.50311 11.88 6.5H9.75C9.28587 6.5 8.84075 6.68437 8.51256 7.01256C8.18437 7.34075 8 7.78587 8 8.25C8 8.71413 8.18437 9.15925 8.51256 9.48744C8.84075 9.81563 9.28587 10 9.75 10C10.0815 10 10.3995 10.1317 10.6339 10.3661C10.8683 10.6005 11 10.9185 11 11.25V12.12" stroke="white" stroke-linecap="round" stroke-linejoin="round"/>
</g>
<defs>
<clipPath id="clip0_1545_13393">
<rect width="14" height="14" fill="white"/>
</clipPath>
</defs>
</svg>
