<svg xmlns="http://www.w3.org/2000/svg" viewBox="0 0 180 152"><defs><style>.cls-1,.cls-2,.cls-3{fill:none;}.cls-2,.cls-3{stroke:#fff;stroke-linecap:round;stroke-linejoin:round;}.cls-2{stroke-width:2.27px;}.cls-3{stroke-width:1.36px;}</style></defs><title>1</title><g id="Layer_2" data-name="Layer 2"><rect class="cls-1" width="180" height="152"/><path class="cls-2" d="M135.28,87.93c1-.83,1.26-4.31,1.26-6.4S131.11,74,127.77,70s-9-12.81-14.83-16.57-22.2-6.54-25.75-7-6.54-2.92-11.07-5.57-7.86-4.52-8.7-5.48-.9-4.54-6.75-5.79-7.59,4.94-8.42,5.15-7.94-.14-9,0-1.67,1.46-2.58,1.81-2,1.57-3.2,4.8c-.49,1.32-.9,4.25,2.16,7.73s9.46,9,10.86,10.58,6.4,10.16,9.88,11.69c0,0,2.09,12.67,5.57,16.56l1.67,7s-4.52,10.37-4.94,16.77"/><path class="cls-2" d="M62.8,110.56s-6.45.2-9.93-.7-5.08-2.3-5.36-2.85-1.88-3-3.62-2.37-2.5,3.06-1.32,4.32,2.58.83,3,1.11,7,4.38,10.09,5.22c0,0-3.62,2.44-5.57,2.78a20.82,20.82,0,0,1-4.52.56c-.56-.14-2.68-1-3.57,0s-1.17,3.17.36,3.73A4.7,4.7,0,0,0,45.7,122a55.74,55.74,0,0,0,6.33-.35,38.57,38.57,0,0,0,5.37-1.39s9.22.91,11.53.21,3.88-2.23,5.08-6.06S75.77,102.62,75.49,96a44.36,44.36,0,0,0,.91-12.88"/><path class="cls-2" d="M127.8,105.68s-14.51,6.37-20.88,7-7.62-2.61-8.35-5.33,1.36-6.78,3.65-9.18,13.68-9.4,20.67-10.44,14.62.73,16.81.94,3.28,1.74,3.14,4.59c-.11,2.09-3.34,7.1-6.79,10.23s-13,8.14-16.81,9.82a41.43,41.43,0,0,1-14.62,3s-6,1.67-8.14,2A23.74,23.74,0,0,0,90,120.51c-.52.42-4.28.73-4.28-.73S85.62,117,88.34,117c0,0,9.81-1.88,10.65-2.3"/><path class="cls-2" d="M95.32,115.56s-9.49-.79-10.53-1-3.66,0-4.07.5-2.93,0-2.82-1.75,1.46-2.82,2.19-2.51a6.66,6.66,0,0,0,3.44.87c1.88,0,13.16-.45,13.16-.45"/><path class="cls-2" d="M83.53,111.67s-1.25-2.12,0-3.17,2.66-.31,3.31,0,8.28.85,12-.1"/><path class="cls-2" d="M76.55,90.54s2.75,7.73,10.29,10.34,12,2.76,12,2.76"/><path class="cls-2" d="M119.74,59.75s11.72,7.41,15.16,9.6,4.7,4.18,3.76,6.26-3.29,3.4-3.43,3.2"/><path class="cls-2" d="M61.85,78.1S57.26,80.9,56.28,82,53.85,86.68,52,85.57s-.84-2.94,0-3.63,6.05-5.35,6.19-6.39a4.18,4.18,0,0,0-2.09-3.35c-1-.34-4.24.21-7.3-.34s-6.5.07-7.57-.28-2.39-3.13-.3-3.76,3.69.35,4.46.49,4.59.83,5.43.21.55-2-.7-2.37-1.57-2.4-.7-3a3.52,3.52,0,0,1,3.31-.33"/><circle class="cls-3" cx="55.73" cy="49.2" r="1.92"/><circle class="cls-3" cx="55.73" cy="49.2" r="4.45"/><path class="cls-2" d="M44.4,53.88S54.28,61,56.48,62s6.75,5.06,6.75,5.06"/><path class="cls-3" d="M53.15,45.11c-.9-.66-2.85-1-3.87-1.35a14.24,14.24,0,0,0-5.32-.7,15.74,15.74,0,0,1,2.64,1.88,7.26,7.26,0,0,0,2.58,1.58,13.22,13.22,0,0,1,2.11,1.32"/><path class="cls-3" d="M60.18,49.2c4.87,3.93,12,13.32,16.35,17.63C73,65.28,66,61.1,63.83,57.93a5.36,5.36,0,0,0-2.86-2,9.87,9.87,0,0,1-3.53-2.58"/></g></svg>