<svg xmlns="http://www.w3.org/2000/svg" viewBox="0 0 180 152"><defs><style>.cls-1,.cls-2,.cls-3,.cls-4{fill:none;}.cls-2,.cls-3,.cls-4{stroke:#fff;stroke-linecap:round;stroke-linejoin:round;}.cls-2{stroke-width:2.27px;}.cls-3{stroke-width:1.36px;}.cls-4{stroke-width:1.81px;}</style></defs><title>1</title><g id="Layer_2" data-name="Layer 2"><rect class="cls-1" width="180" height="152"/><path class="cls-2" d="M23.09,43.41c.37-.15,4.88-4.82,10.32-5.85s14-.26,20.24,4.75,6,5.61,11.85,5.86,8.92-1.05,20,1.84,22.92,8.67,29.8,11.43,14.6,7.09,18.54,7.8,31.83,7.74,33.63,8.52c0,0-3.31.8-3.8,1.65A69.19,69.19,0,0,0,156.42,77c-3.31-.83-9.12-1.52-9.12-1.52l.63.94a35.88,35.88,0,0,0-4.77-1.13C141,75,140,74.81,140,74.81s-9.55,2.53-12.49,3.57-17.45,6.52-24.91,8.88S82.08,93,75.46,92.62,57.86,90.87,49,85.18,37.93,69,35.1,66.21a2.08,2.08,0,0,0,.11,1,5.85,5.85,0,0,1-1.36-1.73,12.32,12.32,0,0,1-.66-1.69A10.73,10.73,0,0,0,32.68,66s-1.89-3.37-2.07-4.86l-.19.94A18.22,18.22,0,0,1,29,60.43a15,15,0,0,1-2-3.81,6.61,6.61,0,0,0-.13,1.46s-.54-1.83-.67-2.21c0,0-3.89-3.43-4.49-4.56a8.14,8.14,0,0,1-3.19-.75,43.37,43.37,0,0,1-4.68-2.43s-.87.36-1.15.17,0-.61.86-1.4a11.83,11.83,0,0,1,5-2.28A46.16,46.16,0,0,0,23.09,43.41Z"/><circle class="cls-3" cx="33.45" cy="46.96" r="2.28"/><path class="cls-2" d="M23.09,43.41A13.51,13.51,0,0,0,24,46c.57,1.07,1.57,2.61,1.57,2.61a4.09,4.09,0,0,1-3.9,2.69"/><path class="cls-2" d="M130.7,68.29c1.93.66,5.4,3.14,5.23,4.17s-1.33,1.4-5,1.48a42.35,42.35,0,0,0-9.78,1.62,103.68,103.68,0,0,1-16,3.39A84.41,84.41,0,0,1,94,79.47a20.11,20.11,0,0,1-6.68,1.09,42.9,42.9,0,0,1-6-1.1,11.07,11.07,0,0,1-5.17.42c-3-.43-11.11-3.24-19-11.57"/><path class="cls-2" d="M140,74.81c-1.22-.13-7-1-7-1"/><path class="cls-2" d="M103.12,56.27s3.26,2.71,2.54,5.37-1.75,2.9-1.75,2.9,1.61,4-3.4,5.32c0,0,1,3.22-4.22,3.23,0,0-.2,3-5.81,2.94S80.8,74.76,74,70.94"/><path class="cls-2" d="M103.91,64.54s-12.62-1.13-16-3.52"/><path class="cls-2" d="M100.51,69.86s-9.49.11-15.3-4"/><path class="cls-2" d="M96.29,73.09S86,72.81,80.5,69.15"/><path class="cls-2" d="M119,63c3.51,1.61,8.75,6.08,8.7,7.34s-2.18.78-6.75,0-14.92-2.23-17.36-2.53"/><path class="cls-2" d="M125.13,71.08s.75,1.72-6,2.26-20.85,1-23.22.79"/><path class="cls-4" d="M79.24,92.53s-6.75,10.72-9.16,13.7c-1.72,2.13-2.71,3.5-3.83,3.85a74.93,74.93,0,0,0-7.19,2.51c-.7.49,1.19.63,3.49.49s7.34-1.32,7.68-1A31.77,31.77,0,0,0,75,114.27a17.1,17.1,0,0,0,3.57.56c.76-.07-2.24-2-2.66-2.72s4.68-1.12,5.38-1.26-8.44-2-8.86-2.74S85,91.73,85,91.73"/><path class="cls-4" d="M80.51,110.93a26.48,26.48,0,0,0,3.82,1.71,17,17,0,0,0,3.56.56c.77-.07-2.23-2-2.65-2.72s4.68-1.12,5.37-1.26-8-1.79-8.47-2.49S95.31,89.38,95.31,89.38"/><path class="cls-4" d="M89.54,90.8s-7.7,10.83-10.11,13.8c-1.73,2.13-2.71,3.5-3.83,3.85l-1.34.42"/></g></svg>