<svg fill="#FFFFFF" xmlns="http://www.w3.org/2000/svg"  viewBox="0 0 128 128" width="128px" height="128px"><path d="M 32 6 C 24.8 6 19 11.8 19 19 L 19 109 C 19 116.2 24.8 122 32 122 L 96 122 C 103.2 122 109 116.2 109 109 L 109 43 C 109 41.3 107.7 40 106 40 C 104.3 40 103 41.3 103 43 L 103 109 C 103 112.9 99.9 116 96 116 L 32 116 C 28.1 116 25 112.9 25 109 L 25 19 C 25 15.1 28.1 12 32 12 L 83 12 L 83 19 C 83 26.2 88.8 32 96 32 L 104.40039 32 C 106.10039 32 109 32 109 29 C 109 22.9 106.60078 17.099219 102.30078 12.699219 C 97.900781 8.3992188 92.1 6 86 6 L 32 6 z M 89 12.300781 C 92.4 12.900781 95.5 14.5 98 17 C 100.5 19.5 102.09922 22.6 102.69922 26 L 96 26 C 92.1 26 89 22.9 89 19 L 89 12.300781 z M 41.900391 56 C 40.200391 56 38.900391 57.3 38.900391 59 C 38.900391 60.7 40.200391 62 41.900391 62 L 85.900391 62 C 87.600391 62 88.900391 60.7 88.900391 59 C 88.900391 57.3 87.600391 56 85.900391 56 L 41.900391 56 z M 41.900391 71 C 40.200391 71 38.900391 72.3 38.900391 74 C 38.900391 75.7 40.200391 77 41.900391 77 L 85.900391 77 C 87.600391 77 88.900391 75.7 88.900391 74 C 88.900391 72.3 87.600391 71 85.900391 71 L 41.900391 71 z M 42.099609 86 C 40.399609 86 39.099609 87.3 39.099609 89 C 39.099609 90.7 40.499609 92 42.099609 92 L 86.099609 92 C 87.799609 92 89.099609 90.7 89.099609 89 C 89.099609 87.3 87.799609 86 86.099609 86 L 42.099609 86 z"/></svg>