<svg xmlns="http://www.w3.org/2000/svg" viewBox="0 0 180 152"><defs><style>.cls-1,.cls-2{fill:none;}.cls-2{stroke:#fff;stroke-linecap:round;stroke-linejoin:round;stroke-width:1.81px;}</style></defs><title>1</title><g id="Layer_2" data-name="Layer 2"><rect class="cls-1" width="180" height="152"/><circle class="cls-2" cx="143.69" cy="83.1" r="2.49"/><path class="cls-2" d="M157.53,83.16c0-2.15-7.35-7.6-15.85-10.66s-18.36-5.44-38-5-53.2,13.95-55.4,13.95-4.62-1.25-8.71-4.08-12.8-8-17.11-8.17c0,0,6.41,9.35,8.4,11.42s2.68,2.53,2.73,3.1"/><path class="cls-2" d="M157.53,83.16c0,2.16-7.35,7.6-15.85,10.66s-18.36,5.44-38,5-53.2-14-55.4-14S43.67,86.11,39.58,89s-12.8,8-17.11,8.16c0,0,6.41-9.35,8.4-11.42s2.68-2.53,2.73-3.09"/><path class="cls-2" d="M122.15,68.09a36.6,36.6,0,0,0-5.43-15,5.71,5.71,0,0,1-4.36,2s-2.57,9.49-7.79,12.3"/><path class="cls-2" d="M97.33,68a22.8,22.8,0,0,0-4.48-6.37c-2.57-2.27-3-1.52-4.23-.76S82.19,71,78.71,72"/><path class="cls-2" d="M126.69,84.61a26.86,26.86,0,0,0-9.29-5.25c-5.43-1.67-8-1.78-9.73-1.44S110,80,112,81.32a117.19,117.19,0,0,1,11.31,9.41A7.44,7.44,0,0,1,126.69,84.61Z"/></g></svg>