<svg xmlns="http://www.w3.org/2000/svg" viewBox="0 0 180 152"><defs><style>.cls-1,.cls-2,.cls-3{fill:none;}.cls-2,.cls-3{stroke:#fff;stroke-linecap:round;stroke-linejoin:round;}.cls-2{stroke-width:2.27px;}.cls-3{stroke-width:1.36px;}</style></defs><title>1</title><g id="Layer_2" data-name="Layer 2"><rect class="cls-1" width="180" height="152"/><path class="cls-2" d="M91.45,57.24s4.89-12.76,7.76-15.82a9.34,9.34,0,0,1,5.93-3.18"/><path class="cls-2" d="M91.91,63.24s9.55-8.43,16.6-12.82,25.06-11.87,36.83-12.79,17.49,1.53,19.74,2.76a3.1,3.1,0,0,1,1.7,3.48c0,.27-.2,3.61-.82,4.23,0,0-1,3.18-2.45,4.14a4.84,4.84,0,0,1-4.37,4.18s-1.43,4.91-5.86,5.32c0,0-1.16,5.72-5,6.61,0,0-2.55,8.35-7.77,10.71s-8.18,1.12-11.87,0S99.78,72,92.9,71.59"/><path class="cls-2" d="M92.23,90.11s3.91,18,4.83,21.06a4.25,4.25,0,0,0,4.81,3.28c1.22-.31,4.84.29,6.4.07s3.55-1.57,4.37-1.37,3.68-1.29,5.11-2.11,2.25-.68,5.19-1.57,3.88-2.11,5.38-3.62,5.05-3.54,5.05-5.25a15.3,15.3,0,0,1,1.84-5.93,8.46,8.46,0,0,0,.95-5.59c-.47-2-1-7-5.28-9.35"/><path class="cls-2" d="M90,56.42a3.4,3.4,0,0,1,2.39,1.7c.27.62.75,3.62-.48,5.12a34.47,34.47,0,0,1,.82,6.41c.07,3.27.34,9.34,0,12.2s-.68,13.78-.89,16.23-.34,7.5-1.84,7.5"/><path class="cls-3" d="M132.76,80.4c2,0,7.16-8.4,4.5-12.7,0,0,4.5-4.4,3.17-7.77,0,0,4.78-2.87.24-6.14s-15.59-3.68-20.9-3.17a96.25,96.25,0,0,0-16,3.07"/><path class="cls-3" d="M92.23,65.42s19.72-4.47,22-4.67,14.72-6.52,17.47-9.81"/><path class="cls-3" d="M117,59.83s14.92,7.87,20.24,7.87"/><path class="cls-3" d="M125.7,55.39S134,60,140.43,59.93"/><path class="cls-3" d="M96.19,107.77s3.7-1.3,4.24-2.19c0,0,4,.55,6.07-1.43,0,0,6.28,1,8.12-1.7a7.24,7.24,0,0,0,7.91-2.66,8,8,0,0,0,4-1.64,3.3,3.3,0,0,0,.59-4.36s1.86-3.55.57-6.14A11.65,11.65,0,0,0,125.05,84s2.61-1.19,2.09-5.34"/><path class="cls-3" d="M96.19,72s5.13,10.29,9,13.63,7.08,5.93,9.13,4.84-.47-6.68-1.43-7.84-3-8-3-8"/><path class="cls-3" d="M112.35,81.72s12.09,7.56,14.27,11.48"/><path class="cls-3" d="M114.27,90.44s6.21,5.25,8.26,9.35"/><path class="cls-3" d="M104.37,84.86s3.09,11.93,2.13,19.29"/><path class="cls-2" d="M88.55,57.24s-4.89-12.76-7.76-15.82a9.34,9.34,0,0,0-5.93-3.18"/><path class="cls-2" d="M88.09,63.24s-9.55-8.43-16.6-12.82S46.43,38.55,34.66,37.63s-17.49,1.53-19.74,2.76a3.1,3.1,0,0,0-1.7,3.48c0,.27.2,3.61.82,4.23,0,0,1,3.18,2.45,4.14a4.84,4.84,0,0,0,4.37,4.18s1.43,4.91,5.86,5.32c0,0,1.16,5.72,5,6.61,0,0,2.55,8.35,7.77,10.71s8.18,1.12,11.87,0S80.22,72,87.1,71.59"/><path class="cls-2" d="M87.77,90.11s-3.91,18-4.83,21.06a4.25,4.25,0,0,1-4.81,3.28c-1.22-.31-4.84.29-6.4.07s-3.55-1.57-4.37-1.37-3.68-1.29-5.11-2.11-2.25-.68-5.19-1.57-3.88-2.11-5.38-3.62-5-3.54-5-5.25a15.3,15.3,0,0,0-1.84-5.93,8.46,8.46,0,0,1-.95-5.59c.47-2,1-7,5.28-9.35"/><path class="cls-2" d="M90,56.42a3.4,3.4,0,0,0-2.39,1.7c-.27.62-.75,3.62.48,5.12a34.47,34.47,0,0,0-.82,6.41c-.07,3.27-.34,9.34,0,12.2s.68,13.78.89,16.23.34,7.5,1.84,7.5"/><path class="cls-3" d="M47.24,80.4c-2,0-7.16-8.4-4.5-12.7,0,0-4.5-4.4-3.17-7.77,0,0-4.78-2.87-.24-6.14s15.59-3.68,20.9-3.17a96.25,96.25,0,0,1,16,3.07"/><path class="cls-3" d="M87.77,65.42s-19.72-4.47-22-4.67S51,54.23,48.26,50.94"/><path class="cls-3" d="M63,59.83S48.06,67.7,42.74,67.7"/><path class="cls-3" d="M54.3,55.39S46,60,39.57,59.93"/><path class="cls-3" d="M83.81,107.77s-3.7-1.3-4.24-2.19c0,0-4,.55-6.07-1.43,0,0-6.28,1-8.12-1.7a7.24,7.24,0,0,1-7.91-2.66,8,8,0,0,1-4-1.64,3.3,3.3,0,0,1-.59-4.36s-1.86-3.55-.57-6.14A11.65,11.65,0,0,1,55,84s-2.61-1.19-2.09-5.34"/><path class="cls-3" d="M83.81,72s-5.13,10.29-9,13.63-7.08,5.93-9.13,4.84.47-6.68,1.43-7.84,3-8,3-8"/><path class="cls-3" d="M67.65,81.72S55.56,89.28,53.38,93.2"/><path class="cls-3" d="M65.73,90.44s-6.21,5.25-8.26,9.35"/><path class="cls-3" d="M75.63,84.86s-3.09,11.93-2.13,19.29"/></g></svg>