<svg xmlns="http://www.w3.org/2000/svg" viewBox="0 0 180 152"><defs><style>.cls-1,.cls-2,.cls-3{fill:none;}.cls-2,.cls-3{stroke:#fff;stroke-linecap:round;stroke-linejoin:round;}.cls-2{stroke-width:2.27px;}.cls-3{stroke-width:1.36px;}</style></defs><title>1</title><g id="Layer_2" data-name="Layer 2"><rect class="cls-1" width="180" height="152"/><path class="cls-2" d="M37.9,33.91a19.29,19.29,0,0,0-3.06-.52c-5.15-.45-11,.91-12.55,2.17s-10.74,12.91-12.88,15C8,52,6.67,53.51,7.67,54.8A5.28,5.28,0,0,0,9.1,56.29a11,11,0,0,0,2.56,3.46c1.62,1.36,5.42,3.13,13.4-.13,3.3-1.43,6.35.88,8.1,1.29a21.58,21.58,0,0,0,5.42.61A88.81,88.81,0,0,0,53,75.61"/><path class="cls-2" d="M73.86,85.61C88.53,88.77,104.78,87,104.78,87a60,60,0,0,0,22.93,3,15.45,15.45,0,0,0,7,7.6c1.24,3.26,4.57,11.77,4.57,13.94s.16,5.43.16,5.43a27.63,27.63,0,0,0-4.82.09c-3.24.27-6.56,1.63-6.56,4.71s3.4,2.08,3.4,2.08c.59,1.27,2.42,1.17,4.83.81s16.2-.45,18.2-.45,2.16-1.63,2.16-2.62-1.17-11.23-.92-14.3,1.58-13.94,2.58-18.11S160.67,71,160.17,66s-4.08-13.21-8.23-19.63S141.72,36,132.58,34s-15.46-.28-23.77,1.72-15.88,3.8-24.35,2.44A58.73,58.73,0,0,0,61.69,39c-6.4,1.54-10.64,0-14.71-1.44-2.32-.83-4.26-1.92-6.45-2.78"/><path class="cls-2" d="M54.46,69.78s-3.25,13-4.33,17-7.56,27.7-8.31,28.33a8.47,8.47,0,0,1-4.07,1.27c-1.16,0-3.78-.73-4.44-.59a2.23,2.23,0,0,0-1.17.86s-2.33-.77-3.32,1.13-.79,2.26-.79,2.26-1.21,2,2.08,2.49,8.85,1.54,11.34,1.54,11.93-.14,14.17-.81,5.9-5.89,7.83-9.21S69,98,69,98s5.53-14.28,8.57-22.68"/><path class="cls-2" d="M77,86.21s6.7,9,7.57,10.56,12.34,16.4,14,17.35c0,0-3.18,1-4.67,1.43s-4.13,1.56-4,4.07,2.54,2,5.59,2,7.48.91,8.79.08,7.17-2.73,6.92-9.18-9.35-25.28-9.35-25.28"/><path class="cls-2" d="M155.76,107.25s4.07,2.89,5.57,3a30.77,30.77,0,0,1,0,4,25.15,25.15,0,0,0-1.06,3.81c0,.81.31,2.62,2.31,2.26s4.23-5,5.07-6.07,1.52-7.31,2.35-9.06,3.08-5.32,2.61-7.33c-.72-3.1-13.94-10.32-13.94-10.32"/><path class="cls-2" d="M34,36.12s4.28-3.57,6-2.18.35,6.26-1.15,8.74"/><path class="cls-3" d="M7.94,52.26s1.53.42,2.55.58S9.94,56,9.1,56.29"/><path class="cls-3" d="M18.3,46.67c-.24-.82,1.29-1.59,2.39-.94s.59,1.35.25,1.58S18.58,47.63,18.3,46.67Z"/></g></svg>