<svg xmlns="http://www.w3.org/2000/svg" viewBox="0 0 180 152"><defs><style>.cls-1,.cls-2,.cls-3{fill:none;}.cls-2,.cls-3{stroke:#fff;stroke-linecap:round;stroke-linejoin:round;}.cls-2{stroke-width:2.27px;}.cls-3{stroke-width:1.81px;}</style></defs><title>1</title><g id="Layer_2" data-name="Layer 2"><rect class="cls-1" width="180" height="152"/><path class="cls-2" d="M99.53,84.45c.24,1.53.22,14.37.27,15.27.87,14.4,2.58,22,6.45,43.23-7.6-2.25-16.72-2-24.49-.39-1.22.25-2.63.5-3.62-.27,3.93-11.07,5.3-16.84,6.35-28.55.24-2.68,1.9-12,1.91-14.74"/><path class="cls-2" d="M86.15,84.45c-.09-2.25.37-4.49.34-6.74-.06-4.66.08-9.32.34-14,.23-4.11.49-11,1.4-15,.4-1.77,1.45-8.09,2.56-8,1.56.16,1.78,8.22,1.84,9.48.19,4.61,1.13,8.86,1.63,13.48.31,2.82.76,4.67,1.3,8.5.1.69.75,3.17,1,4.25"/><path class="cls-2" d="M99.53,84.45c1.84-2.63,2.34-2.47,5.44-6,2.06-2.33,3.85-4.27,6-6.5a72.08,72.08,0,0,1,5.79-5c4.54-3.74,4.87-4.64,8.72-9.08,1.3-1.51,2.51-3.79,1.92-4-.82-.55-2.47.76-3.74,1.72-6.27,4.75-10.24,6-15.64,10.08-1.4,1.06-4.25,3.29-5.5,4.52-2.5,2.43-3.63,3.8-6,6.29"/><path class="cls-3" d="M125.56,57.85c2.67,3,1.93,7.55.75,11a19.39,19.39,0,0,0,5-12.23,12.41,12.41,0,0,1,5.37,6.17,15.39,15.39,0,0,0,.17-5.32,13,13,0,0,0-2-4.71c2.68.22,4.84.07,7.23,1.31-.86-2.69-4.05-5-6.81-5.64a29.45,29.45,0,0,1,4.95-2.88,21.21,21.21,0,0,0-7.15.32,9.29,9.29,0,0,0-1.78-5.83A27.89,27.89,0,0,0,127,35.51c1.84,3.21,1.33,7.2.77,10.86a16.15,16.15,0,0,0-4-3.79A12.27,12.27,0,0,1,125,48.65c-.7-1.44-4.28-3.12-5.86-2.87,1,.78,3.28,3.6,3.61,4.82a9.54,9.54,0,0,0-9.24.87c1.63,0,8.54,3,10.68,3.72"/><path class="cls-3" d="M86.73,54.06c-1.56-.55-3.26.2-4.65,1.08a24,24,0,0,0-7.3,7.23,33.59,33.59,0,0,1,5.64-13.12A34.8,34.8,0,0,0,69.3,52.4c1.3-3.42,4.45-5.74,7.44-7.86A34.24,34.24,0,0,0,71,41.72a11.4,11.4,0,0,1,5-.93,39.92,39.92,0,0,0-15.5-9.29,23.22,23.22,0,0,1,20.42,1.64,65.64,65.64,0,0,0-5.47-10.93,13.83,13.83,0,0,1,7.7,5.16,37.62,37.62,0,0,1,.47-11.55,85.52,85.52,0,0,1,4.07,8.8,14.24,14.24,0,0,1,3.48-9.08A36.24,36.24,0,0,1,98.6,9.05,37,37,0,0,0,95,25.7a20.54,20.54,0,0,1,9-5.11,27.13,27.13,0,0,0-5.54,7.15A22.18,22.18,0,0,1,110,23.31q-3.28,3.66-6.28,7.57a15.17,15.17,0,0,1,10.06-3.27,28.27,28.27,0,0,1,10.43,2.53A7.75,7.75,0,0,0,120,31.43c-5.89,3.14-11.92,6.4-16.21,11.5a19,19,0,0,1,7.91.13,30.42,30.42,0,0,0-6.39,4.83,8,8,0,0,1,4.83,2.85,14.27,14.27,0,0,0-7.94,2.55,11,11,0,0,1,5,7.57,18.54,18.54,0,0,0-13.68-5.28"/><path class="cls-2" d="M86.4,99c-2.94-8.23-8.25-14.83-14.81-20.61S58.1,66.89,54,59.19c-.21-.39-.38-1,0-1.21s.82.14,1.1.47c4.83,5.72,10.66,10.49,16.46,15.22,2.14,1.75,4.59,3.07,6.79,4.75,1.61,1.24,6.84,4.91,7.84,6"/><path class="cls-3" d="M59.67,67.22c-2-1.12-4.73-.24-6.33,1.46A13.24,13.24,0,0,0,50.5,75a11.82,11.82,0,0,1,2.43-9.93,71.51,71.51,0,0,0-7.22,1.73l3.14-3.41A26.4,26.4,0,0,0,38,62.72,14.86,14.86,0,0,1,46,59a20.45,20.45,0,0,1-4.26-15.22,36.92,36.92,0,0,0,6.3,8.59,10.52,10.52,0,0,1,2.15-7.45,14.57,14.57,0,0,0,2.23,5.9c3.21-2.77,6.65-5.66,10.84-6.34a14.53,14.53,0,0,0-4.6,7.45,17.62,17.62,0,0,1,7.24-4.17,14.36,14.36,0,0,0-2.41,6.43,3.78,3.78,0,0,1,3.59.46c-1.36.81-2.7,1.67-4,2.56A14.67,14.67,0,0,1,67.71,61l-5,.32,2.93,3.79a6.14,6.14,0,0,0-4.07-1.07"/></g></svg>