<svg xmlns="http://www.w3.org/2000/svg" viewBox="0 0 180 152"><defs><style>.cls-1,.cls-2,.cls-3{fill:none;}.cls-2,.cls-3{stroke:#fff;stroke-linecap:round;stroke-linejoin:round;}.cls-2{stroke-width:2.27px;}.cls-3{stroke-width:1.36px;}</style></defs><title>1</title><g id="Layer_2" data-name="Layer 2"><rect class="cls-1" width="180" height="152"/><path class="cls-2" d="M52.69,46.82a51.67,51.67,0,0,1,43.43-2.9c9.42,3.72,17.57,10.17,27,13.9,1.62.64,3.64,1.86,3.15,3.53a3.48,3.48,0,0,1-.77,1.2c-10,11.45-24,19-38.74,22.61s-30.21,3.67-45.28,1.78c-3.45-.43-12.88-1-14-5C26.54,78.6,30.55,71.42,32,68.51A51.54,51.54,0,0,1,52.69,46.82Z"/><path class="cls-2" d="M124.22,64.13c2.48.57,5-.67,6.93-2.37s3.32-3.83,5.11-5.63c6.25-6.26,15.8-7.47,24.6-8.35a8.22,8.22,0,0,1,4.07.29c3.32,1.45,3.18,6.32,1.5,9.52-2.26,4.32-6.17,7.52-10.1,10.4a156.43,156.43,0,0,1-15.22,9.87c-2.63,1.5-5.42,3-8.45,3.09s-6.08-1.09-9.09-.62c-3.87.61-6.73,3.82-9.25,6.83"/><path class="cls-2" d="M112.39,78c-1.32,4.87,3.17,9.91,1.88,14.78-.61,2.28-2.39,4-4.21,5.54a44.5,44.5,0,0,1-9.25,5.83c-2.27,1.06-4.89,1.93-7.23,1-2.63-1-4.28-4.14-2.77-6.52,1.84-2.88,4.9-5.15,7.26-7.74a13.53,13.53,0,0,0,1.63-2.27"/><path class="cls-2" d="M52.15,97.87a120,120,0,0,0,40.1-1.11"/><path class="cls-2" d="M113,95.33a41.3,41.3,0,0,0,16.77-8.26c2.38-1.89,4.47-3.76,5.61-6.57"/><path class="cls-2" d="M128.33,88.48c2.92.65,5.53,1.33,7.36,3.69,2.11,2.72,1.85,6.77,4.06,9.4,2.45,2.93,6.86,3,10.68,2.77a9.9,9.9,0,0,0,4.73-1c1.39-.85,2.32-2.69,1.6-4.16-.61-1.24-2.09-1.73-3.24-2.5-3.21-2.15-3.86-6.47-5.21-10.09a19.68,19.68,0,0,0-6.42-9.13"/><path class="cls-2" d="M56.79,88.33a22.4,22.4,0,0,1-9.38,13.38c-.23.15-1.69.84-1.87.62"/><path class="cls-2" d="M41.1,103a8.25,8.25,0,0,1,6.57-.09,6.25,6.25,0,0,1,3.7,5.26,3.34,3.34,0,0,1-1,2.64,4.7,4.7,0,0,1-3.29.72l-11.8-.35a7.39,7.39,0,0,1-3.78-.8,4.86,4.86,0,0,1-2-4.46,11.29,11.29,0,0,1,1.74-4.78A33.87,33.87,0,0,1,45.2,87.37"/><path class="cls-2" d="M31.73,85.36c-2.18,2.43-3.48,5.51-5.17,8.3a12.44,12.44,0,0,1-7.49,5.79"/><path class="cls-2" d="M27.45,91.44a12.05,12.05,0,0,0-7.27.21,12.76,12.76,0,0,0-6,3.21,6,6,0,0,0-1.41,6.31c1.21,2.72,4.61,3.61,7.58,3.71a26.09,26.09,0,0,0,9.73-1.32"/><path class="cls-2" d="M30.22,73.07a9.22,9.22,0,0,0,7.61,2.87,3.31,3.31,0,0,0,1.71-.59,3.58,3.58,0,0,0,.9-1.29,31.91,31.91,0,0,0,2.68-7.71c1.12-5.28,1-11,3.6-15.67.09-.16.2-.33.38-.36s.35.22.21.33"/><path class="cls-2" d="M40.44,74.06c5,2.77,10.7,1.56,16.33.49,1.86-.35,3.88-.82,5.08-2.28a8.35,8.35,0,0,0,1.43-4.35L65.05,54.7a41.82,41.82,0,0,1,1.65-8.17,18.29,18.29,0,0,1,2.71-5.27"/><path class="cls-2" d="M61.71,73C67,76.38,73.89,75.55,80,74.1a7.41,7.41,0,0,0,3.26-1.37c1.35-1.17,1.72-3.1,1.82-4.89.18-3.41-.31-6.82-.26-10.23s.7-7,2.85-9.64c.84-1-.16-2.48-1.11-3.4l-3.81-3.7"/><path class="cls-2" d="M88.23,46.07a29.6,29.6,0,0,0,10.9-.26l-.66-.23"/><path class="cls-2" d="M104,47.67c3.14,2.53,5.68,7.08,7.09,10.86a4.63,4.63,0,0,1,.37,2.09A4.39,4.39,0,0,1,110.08,63,30.37,30.37,0,0,1,91.6,72c-2.38.29-5.25.11-6.51-1.92"/><path class="cls-2" d="M67.06,45.58c-.22.63.84,1.39,1.46,1.65a3.89,3.89,0,0,0,2,.11c5-.63,10-2.21,12.6-6.59"/><path class="cls-2" d="M47.57,51.46c-.13-.21-.49.09-.39.32s.4.29.65.33l7.35,1a5.71,5.71,0,0,0,2.18,0A5.3,5.3,0,0,0,59.23,52c2.5-2,5.53-4.13,7.83-6.38"/><path class="cls-2" d="M153.86,97a2.28,2.28,0,0,0-1.32.9,1.34,1.34,0,0,0,0,1.52,2.14,2.14,0,0,0-1.37,1.18,4.05,4.05,0,0,0-.35,1.82,2.06,2.06,0,0,0,.67,1.76"/><path class="cls-2" d="M152.57,99.56a9.44,9.44,0,0,1,2.83,3.13"/><path class="cls-2" d="M90.39,101.17a4.42,4.42,0,0,1,1.51-.92,2.21,2.21,0,0,1,.88-.15,2.79,2.79,0,0,1,1.29.55c.57.36,1.15.73,1.69,1.14a12.14,12.14,0,0,1,2.71,2.83"/><path class="cls-2" d="M92.41,103.88a6.46,6.46,0,0,0,2.76-2.31"/><path class="cls-3" d="M149.55,55c-.73.94.38,2.57,1.56,2.72a2.46,2.46,0,0,0,2.54-2,1.64,1.64,0,0,0-2-2.08A2.92,2.92,0,0,0,149.55,55"/></g></svg>